<svg width="172" height="58" viewBox="0 0 172 58" fill="none" xmlns="http://www.w3.org/2000/svg">
<path d="M30.702 25.6001C29.4765 25.6001 28.509 26.6446 28.509 27.9449C28.509 29.2451 29.498 30.2896 30.702 30.2896C31.9275 30.2896 32.895 29.2451 32.895 27.9449C32.895 26.6446 31.906 25.6001 30.702 25.6001ZM22.8545 25.6001C21.629 25.6001 20.6615 26.6446 20.6615 27.9449C20.6615 29.2451 21.6505 30.2896 22.8545 30.2896C24.08 30.2896 25.0475 29.2451 25.0475 27.9449C25.069 26.6446 24.08 25.6001 22.8545 25.6001Z" fill="white"/>
<path d="M41.151 7.8655H12.341C9.91151 7.8655 7.93351 9.82654 7.93351 12.2352V40.7982C7.93351 43.2069 9.91151 45.168 12.341 45.168H36.722L35.5825 41.2672L38.3345 43.7824L40.936 46.1485L45.58 50.1345V12.2352C45.5585 9.82654 43.5805 7.8655 41.151 7.8655ZM32.852 35.4693C32.852 35.4693 32.078 34.5527 31.433 33.7641C34.2495 32.9754 35.3245 31.2488 35.3245 31.2488C34.443 31.8243 33.6045 32.2293 32.852 32.5064C31.777 32.9541 30.745 33.2312 29.7345 33.423C27.6705 33.8067 25.7785 33.7001 24.166 33.4017C22.9405 33.1672 21.887 32.8475 21.0055 32.4851C20.511 32.2933 19.9735 32.0588 19.436 31.7604C19.3715 31.7178 19.307 31.6964 19.2425 31.6538C19.1995 31.6325 19.178 31.6112 19.1565 31.6112C18.7695 31.398 18.5545 31.2488 18.5545 31.2488C18.5545 31.2488 19.5865 32.9328 22.317 33.7427C21.672 34.5527 20.8765 35.4906 20.8765 35.4906C16.125 35.3414 14.319 32.272 14.319 32.272C14.319 25.4723 17.415 19.9515 17.415 19.9515C20.511 17.6707 23.435 17.7347 23.435 17.7347L23.65 17.9905C19.78 19.0776 18.017 20.7615 18.017 20.7615C18.017 20.7615 18.49 20.5057 19.2855 20.1647C21.586 19.1628 23.4135 18.907 24.166 18.8218C24.295 18.8004 24.4025 18.7791 24.5315 18.7791C25.843 18.6086 27.3265 18.566 28.8745 18.7365C30.917 18.971 33.11 19.5678 35.346 20.7615C35.346 20.7615 33.6475 19.1628 29.9925 18.0757L30.2935 17.7347C30.2935 17.7347 33.239 17.6707 36.3135 19.9515C36.3135 19.9515 39.4095 25.4723 39.4095 32.272C39.4095 32.2506 37.6035 35.3201 32.852 35.4693ZM65.317 16.9886H58.179V24.9394L62.9305 29.1812V21.4649H65.4675C67.08 21.4649 67.8755 22.2323 67.8755 23.4686V29.373C67.8755 30.6093 67.123 31.4407 65.4675 31.4407H58.1575V35.9383H65.2955C69.1225 35.9596 72.713 34.0625 72.713 29.7141V23.362C72.7345 18.9283 69.144 16.9886 65.317 16.9886ZM102.727 29.7141V23.1915C102.727 20.8468 106.984 20.3139 108.274 22.6586L112.209 21.0812C110.661 17.7133 107.844 16.7328 105.501 16.7328C101.674 16.7328 97.8895 18.9283 97.8895 23.1915V29.7141C97.8895 34.0198 101.674 36.1727 105.415 36.1727C107.823 36.1727 110.704 35.0004 112.295 31.9309L108.081 30.0125C107.049 32.6343 102.727 31.9949 102.727 29.7141ZM89.7195 24.0867C88.236 23.767 87.247 23.2341 87.1825 22.3175C87.2685 20.122 90.687 20.0368 92.6865 22.147L95.847 19.7383C93.869 17.351 91.633 16.7115 89.3325 16.7115C85.828 16.7115 82.431 18.6726 82.431 22.3815C82.431 25.9838 85.226 27.9236 88.3005 28.3925C89.87 28.6057 91.6115 29.2238 91.5685 30.2896C91.4395 32.3146 87.2255 32.208 85.312 29.9059L82.259 32.7409C84.0435 35.0217 86.473 36.1727 88.752 36.1727C92.2565 36.1727 96.148 34.1691 96.2985 30.5028C96.5135 25.8773 93.1165 24.7049 89.7195 24.0867ZM75.3145 35.9169H80.1305V16.9886H75.3145V35.9169ZM156.52 16.9886H149.382V24.9394L154.134 29.1812V21.4649H156.671C158.283 21.4649 159.079 22.2323 159.079 23.4686V29.373C159.079 30.6093 158.326 31.4407 156.671 31.4407H149.361V35.9383H156.52C160.347 35.9596 163.938 34.0625 163.938 29.7141V23.362C163.938 18.9283 160.347 16.9886 156.52 16.9886ZM121.497 16.7328C117.541 16.7328 113.606 18.8644 113.606 23.2341V29.6928C113.606 34.0198 117.562 36.194 121.54 36.194C125.496 36.194 129.43 34.0198 129.43 29.6928V23.2341C129.43 18.8857 125.453 16.7328 121.497 16.7328ZM124.593 29.6928C124.593 31.057 123.045 31.7604 121.518 31.7604C119.97 31.7604 118.422 31.0996 118.422 29.6928V23.2341C118.422 21.8486 119.927 21.1025 121.432 21.1025C123.002 21.1025 124.593 21.7633 124.593 23.2341V29.6928ZM146.716 23.2341C146.609 18.8004 143.556 17.0099 139.621 17.0099H131.989V35.9383H136.869V29.9272H137.729L142.158 35.9383H148.178L142.975 29.437C145.276 28.7122 146.716 26.7299 146.716 23.2341ZM139.707 25.792H136.869V21.4649H139.707C142.739 21.4649 142.739 25.792 139.707 25.792Z" fill="white"/>
</svg>
