<svg width="84" height="72" viewBox="0 0 84 72" fill="none" xmlns="http://www.w3.org/2000/svg">
<path d="M1.162 6.244C1.162 5.94533 1.134 5.698 1.078 5.502C1.03133 5.306 0.966 5.14733 0.882 5.026C0.798 4.89533 0.648667 4.77867 0.434 4.676H9.632C9.41733 4.732 9.24467 4.89533 9.114 5.166C8.99267 5.43667 8.932 5.796 8.932 6.244V12.432C8.932 12.8707 8.99267 13.2347 9.114 13.524C9.24467 13.804 9.41267 13.9627 9.618 14H6.258C6.454 13.9533 6.61267 13.7947 6.734 13.524C6.85533 13.2533 6.916 12.8893 6.916 12.432V5.95H3.178V12.432C3.178 13.3933 3.388 13.916 3.808 14H0.462C0.676667 13.944 0.844667 13.7807 0.966 13.51C1.09667 13.2393 1.162 12.88 1.162 12.432V6.244ZM15.2138 14.21C13.8605 14.21 12.7592 13.7713 11.9098 12.894C11.0698 12.0073 10.6498 10.8687 10.6498 9.478C10.6498 8.554 10.8552 7.70933 11.2658 6.944C11.6858 6.16933 12.2738 5.56267 13.0298 5.124C13.7858 4.68533 14.6212 4.466 15.5358 4.466C16.8798 4.466 17.9672 4.90933 18.7978 5.796C19.6378 6.67333 20.0578 7.80733 20.0578 9.198C20.0578 10.6167 19.6052 11.8067 18.6998 12.768C17.7945 13.7293 16.6325 14.21 15.2138 14.21ZM15.5358 12.768C16.2732 12.768 16.8705 12.4787 17.3278 11.9C17.7945 11.312 18.0278 10.5373 18.0278 9.576C18.0278 8.47467 17.7712 7.58333 17.2578 6.902C16.7445 6.22067 16.0538 5.88 15.1858 5.88C14.4485 5.88 13.8465 6.16467 13.3798 6.734C12.9225 7.294 12.6938 8.064 12.6938 9.044C12.6938 10.1733 12.9458 11.0787 13.4498 11.76C13.9538 12.432 14.6492 12.768 15.5358 12.768ZM20.8057 12.684H21.1698C21.3564 12.684 21.4731 12.656 21.5198 12.6C21.5758 12.544 21.6224 12.4693 21.6598 12.376L24.6698 4.676H26.3218L29.4298 12.348C29.4764 12.4507 29.5231 12.5347 29.5698 12.6C29.6258 12.656 29.7424 12.684 29.9198 12.684H30.3398V16.394H30.2138C30.0271 15.6847 29.7098 15.106 29.2618 14.658C28.8138 14.2193 28.3144 14 27.7638 14H23.3818C22.9711 14 22.6024 14.112 22.2758 14.336C21.9491 14.5693 21.6644 14.8773 21.4218 15.26C21.1791 15.652 21.0158 16.03 20.9318 16.394H20.8057V12.684ZM27.3158 12.684L25.1598 7.126L23.0738 12.684H27.3158ZM32.1047 6.286C32.1047 5.84733 32.0301 5.488 31.8807 5.208C31.7407 4.91867 31.5401 4.74133 31.2787 4.676H35.5767C36.4914 4.676 37.2287 4.94667 37.7887 5.488C38.3581 6.02 38.6427 6.69667 38.6427 7.518C38.6427 8.43267 38.3301 9.17 37.7047 9.73C37.0794 10.29 36.2581 10.57 35.2407 10.57C34.7927 10.57 34.3774 10.514 33.9947 10.402V12.446C33.9947 12.8007 34.0367 13.09 34.1207 13.314C34.2047 13.538 34.3074 13.706 34.4287 13.818C34.5501 13.9207 34.6761 13.9813 34.8067 14H31.3767C31.6007 13.972 31.7781 13.8227 31.9087 13.552C32.0394 13.272 32.1047 12.9033 32.1047 12.446V6.286ZM33.9947 9.114C34.3214 9.21667 34.6667 9.268 35.0307 9.268C35.5347 9.268 35.9221 9.114 36.1927 8.806C36.4634 8.48867 36.5987 8.078 36.5987 7.574C36.5987 7.098 36.4541 6.71067 36.1647 6.412C35.8754 6.104 35.4647 5.95 34.9327 5.95H33.9947V9.114ZM44.1299 14.21C42.7765 14.21 41.6752 13.7713 40.8259 12.894C39.9859 12.0073 39.5659 10.8687 39.5659 9.478C39.5659 8.554 39.7712 7.70933 40.1819 6.944C40.6019 6.16933 41.1899 5.56267 41.9459 5.124C42.7019 4.68533 43.5372 4.466 44.4519 4.466C45.7959 4.466 46.8832 4.90933 47.7139 5.796C48.5539 6.67333 48.9739 7.80733 48.9739 9.198C48.9739 10.6167 48.5212 11.8067 47.6159 12.768C46.7105 13.7293 45.5485 14.21 44.1299 14.21ZM44.4519 12.768C45.1892 12.768 45.7865 12.4787 46.2439 11.9C46.7105 11.312 46.9439 10.5373 46.9439 9.576C46.9439 8.47467 46.6872 7.58333 46.1739 6.902C45.6605 6.22067 44.9699 5.88 44.1019 5.88C43.3645 5.88 42.7625 6.16467 42.2959 6.734C41.8385 7.294 41.6099 8.064 41.6099 9.044C41.6099 10.1733 41.8619 11.0787 42.3659 11.76C42.8699 12.432 43.5652 12.768 44.4519 12.768ZM50.6952 6.188C50.6952 5.348 50.4479 4.844 49.9532 4.676H56.7992V7.154C56.6312 6.68733 56.4025 6.37 56.1132 6.202C55.8332 6.034 55.4832 5.95 55.0632 5.95H52.5992V8.33H54.0832C55.1285 8.33 55.9405 8.57733 56.5192 9.072C57.0979 9.55733 57.3872 10.2013 57.3872 11.004C57.3872 11.8907 57.0699 12.614 56.4352 13.174C55.8005 13.7247 54.9932 14 54.0132 14H49.9112C50.1445 13.9627 50.3312 13.7947 50.4712 13.496C50.6205 13.1973 50.6952 12.8333 50.6952 12.404V6.188ZM53.7052 12.74C54.2092 12.74 54.6059 12.5907 54.8952 12.292C55.1845 11.984 55.3292 11.5967 55.3292 11.13C55.3292 10.71 55.1939 10.3507 54.9232 10.052C54.6525 9.75333 54.2185 9.604 53.6212 9.604H52.5992V12.74H53.7052ZM59.0487 6.244C59.0394 5.33867 58.7921 4.816 58.3067 4.676H61.7787C61.5641 4.72267 61.3914 4.886 61.2607 5.166C61.1301 5.43667 61.0647 5.796 61.0647 6.244V8.652H65.0827V6.244C65.0827 5.89867 65.0501 5.62333 64.9847 5.418C64.9194 5.21267 64.8401 5.054 64.7467 4.942C64.6627 4.83 64.5274 4.74133 64.3407 4.676H67.8127C67.6167 4.704 67.4487 4.85333 67.3087 5.124C67.1687 5.39467 67.0987 5.768 67.0987 6.244V12.432C67.0987 12.7867 67.1361 13.0807 67.2107 13.314C67.2854 13.538 67.3741 13.706 67.4767 13.818C67.5887 13.9207 67.7007 13.9813 67.8127 14H64.3407C64.4527 13.9813 64.5647 13.9207 64.6767 13.818C64.7981 13.706 64.8961 13.538 64.9707 13.314C65.0454 13.0807 65.0827 12.7867 65.0827 12.432V9.926H61.0647V12.432C61.0647 12.8893 61.1301 13.258 61.2607 13.538C61.4007 13.818 61.5734 13.972 61.7787 14H58.3067C58.4281 13.9813 58.5447 13.9207 58.6567 13.818C58.7781 13.706 58.8714 13.538 58.9367 13.314C59.0114 13.0807 59.0487 12.7867 59.0487 12.432V6.244ZM69.5237 6.244C69.5237 5.83333 69.449 5.488 69.2997 5.208C69.1503 4.91867 68.9357 4.74133 68.6557 4.676H74.9977V7.168C74.867 6.72 74.6617 6.40733 74.3817 6.23C74.1017 6.04333 73.7377 5.95 73.2897 5.95H71.5257V8.652H73.0657C73.6537 8.66133 74.027 8.50267 74.1857 8.176V10.388C74.167 10.2667 74.0643 10.1593 73.8777 10.066C73.7003 9.97267 73.439 9.926 73.0937 9.926H71.5257V12.712H73.4297C74.0177 12.712 74.461 12.6187 74.7597 12.432C75.0677 12.236 75.3523 11.8907 75.6137 11.396L75.1657 14H68.7677C68.889 13.9813 69.0057 13.916 69.1177 13.804C69.2297 13.6827 69.323 13.5053 69.3977 13.272C69.4817 13.0387 69.5237 12.726 69.5237 12.334V6.244ZM77.1936 6.244C77.1936 5.83333 77.1189 5.488 76.9696 5.208C76.8203 4.91867 76.6056 4.74133 76.3256 4.676H82.6676V7.168C82.5369 6.72 82.3316 6.40733 82.0516 6.23C81.7716 6.04333 81.4076 5.95 80.9596 5.95H79.1956V8.652H80.7356C81.3236 8.66133 81.6969 8.50267 81.8556 8.176V10.388C81.8369 10.2667 81.7343 10.1593 81.5476 10.066C81.3703 9.97267 81.1089 9.926 80.7636 9.926H79.1956V12.712H81.0996C81.6876 12.712 82.1309 12.6187 82.4296 12.432C82.7376 12.236 83.0223 11.8907 83.2836 11.396L82.8356 14H76.4376C76.5589 13.9813 76.6756 13.916 76.7876 13.804C76.8996 13.6827 76.9929 13.5053 77.0676 13.272C77.1516 13.0387 77.1936 12.726 77.1936 12.334V6.244Z" fill="#5C7A91"/>
<rect x="34.5" y="28.5" width="14" height="26" rx="7" stroke="#5C7A90"/>
<circle cx="41.5" cy="34.5" r="1.5" fill="#5C7A90"/>
<path d="M34 58.5L41 65.5L48 58.5" stroke="#5C7A90" stroke-linecap="round" stroke-linejoin="round"/>
<path d="M34 64L41 71L48 64" stroke="#5C7A90" stroke-linecap="round" stroke-linejoin="round"/>
</svg>
