<svg width="28" height="28" viewBox="0 0 28 28" fill="none" xmlns="http://www.w3.org/2000/svg">
<path d="M26.4301 0.488983H1.56985C0.971989 0.488983 0.48897 0.972002 0.48897 1.56987V26.4302C0.48897 27.028 0.971989 27.511 1.56985 27.511H26.4301C27.028 27.511 27.511 27.028 27.511 26.4302V1.56987C27.511 0.972002 27.028 0.488983 26.4301 0.488983ZM23.3091 8.37605H21.1507C19.4585 8.37605 19.1308 9.17995 19.1308 10.3622V12.9664H23.1706L22.6437 17.0434H19.1308V27.511H14.9187V17.0467H11.3957V12.9664H14.9187V9.96021C14.9187 6.47099 17.0501 4.56931 20.1644 4.56931C21.6574 4.56931 22.9375 4.68078 23.3125 4.73145V8.37605H23.3091Z" fill="#5C7A90"/>
</svg>
