<svg width="28" height="28" viewBox="0 0 28 28" fill="none" xmlns="http://www.w3.org/2000/svg">
<path d="M14.0009 0C10.1955 0 9.72125 0.018375 8.232 0.081375C6.73662 0.154875 5.72512 0.38675 4.83262 0.73325C3.89853 1.08589 3.05258 1.63801 2.35375 2.35113C1.63865 3.04832 1.08622 3.89474 0.735875 4.83C0.389375 5.7225 0.1575 6.734 0.0839995 8.22937C0.0166245 9.7195 0.00262451 10.1929 0.00262451 13.9983C0.00262451 17.8036 0.0209995 18.2779 0.0839995 19.7671C0.1575 21.2581 0.389375 22.274 0.735875 23.1665C1.08852 24.1006 1.64064 24.9465 2.35375 25.6454C3.05095 26.3605 3.89737 26.9129 4.83262 27.2633C5.72512 27.6054 6.741 27.8416 8.232 27.9151C9.72212 27.9825 10.1955 27.9965 14.0009 27.9965C17.8062 27.9965 18.2805 27.9781 19.7697 27.9151C21.2607 27.8416 22.2766 27.6045 23.1691 27.2633C24.1032 26.9106 24.9492 26.3585 25.648 25.6454C26.364 24.9489 26.9166 24.1023 27.2659 23.1665C27.608 22.274 27.8442 21.2581 27.9177 19.7671C27.9851 18.277 27.9991 17.8036 27.9991 13.9983C27.9991 10.1929 27.9807 9.71863 27.9177 8.22937C27.8442 6.73837 27.6071 5.71725 27.2659 4.83C26.9132 3.8959 26.3611 3.04996 25.648 2.35113C24.9516 1.6351 24.1049 1.08253 23.1691 0.73325C22.2766 0.38675 21.2607 0.154875 19.7697 0.081375C18.2796 0.014 17.8062 0 14.0009 0ZM14.0009 2.52C17.738 2.52 18.1842 2.53838 19.6612 2.60138C21.0236 2.66525 21.7656 2.89275 22.2582 3.08525C22.8673 3.31006 23.4185 3.66787 23.8717 4.13263C24.3357 4.58397 24.6922 5.13393 24.9147 5.74175C25.1072 6.23438 25.3347 6.97637 25.3986 8.33875C25.4616 9.81575 25.48 10.2629 25.48 13.9991C25.48 17.7354 25.4616 18.1825 25.3934 19.6595C25.3199 21.0219 25.0924 21.7639 24.9007 22.2565C24.6356 22.9136 24.3399 23.373 23.8516 23.87C23.3968 24.3318 22.846 24.6879 22.2381 24.913C21.7516 25.1055 20.9991 25.333 19.6315 25.3969C18.1466 25.4599 17.7091 25.4783 13.9624 25.4783C10.2156 25.4783 9.779 25.4599 8.29237 25.3916C6.93 25.3181 6.17837 25.0906 5.68575 24.899C5.02075 24.6339 4.56487 24.3381 4.07662 23.8499C3.584 23.3573 3.27075 22.8883 3.02925 22.2364C2.83325 21.7499 2.60925 20.9974 2.53662 19.6297C2.48675 18.1624 2.46312 17.7074 2.46312 13.9781C2.46312 10.2506 2.48675 9.79475 2.53662 8.309C2.60925 6.94138 2.83325 6.19063 3.02925 5.70238C3.27075 5.0365 3.58487 4.5815 4.07662 4.08887C4.564 3.6015 5.02075 3.2865 5.68575 3.03975C6.17837 2.84812 6.91162 2.62063 8.27925 2.55238C9.76412 2.499 10.2016 2.47975 13.9431 2.47975L14.0009 2.52ZM14.0009 6.81363C13.057 6.81328 12.1224 6.99893 11.2504 7.35995C10.3783 7.72098 9.58596 8.25031 8.91857 8.9177C8.25119 9.58508 7.72185 10.3774 7.36083 11.2495C6.9998 12.1215 6.81415 13.0562 6.8145 14C6.81415 14.9438 6.9998 15.8785 7.36083 16.7505C7.72185 17.6226 8.25119 18.4149 8.91857 19.0823C9.58596 19.7497 10.3783 20.279 11.2504 20.64C12.1224 21.0011 13.057 21.1867 14.0009 21.1864C14.9447 21.1867 15.8793 21.0011 16.7514 20.64C17.6234 20.279 18.4158 19.7497 19.0832 19.0823C19.7506 18.4149 20.2799 17.6226 20.6409 16.7505C21.0019 15.8785 21.1876 14.9438 21.1872 14C21.1876 13.0562 21.0019 12.1215 20.6409 11.2495C20.2799 10.3774 19.7506 9.58508 19.0832 8.9177C18.4158 8.25031 17.6234 7.72098 16.7514 7.35995C15.8793 6.99893 14.9447 6.81328 14.0009 6.81363ZM14.0009 18.6664C11.4214 18.6664 9.3345 16.5795 9.3345 14C9.3345 11.4205 11.4214 9.33362 14.0009 9.33362C16.5804 9.33362 18.6672 11.4205 18.6672 14C18.6672 16.5795 16.5804 18.6664 14.0009 18.6664ZM23.1569 6.52663C23.1564 6.97258 22.9789 7.40011 22.6634 7.71529C22.3479 8.03046 21.9202 8.2075 21.4742 8.2075C21.2537 8.2075 21.0354 8.16407 20.8317 8.07968C20.628 7.9953 20.4429 7.87162 20.2869 7.7157C20.131 7.55977 20.0073 7.37467 19.9229 7.17095C19.8386 6.96723 19.7951 6.74888 19.7951 6.52838C19.7951 6.30787 19.8386 6.08952 19.9229 5.8858C20.0073 5.68208 20.131 5.49698 20.2869 5.34105C20.4429 5.18513 20.628 5.06145 20.8317 4.97707C21.0354 4.89268 21.2537 4.84925 21.4742 4.84925C22.3991 4.84925 23.1569 5.60175 23.1569 6.52663Z" fill="#5C7A90"/>
</svg>
