<svg width="196" height="29" viewBox="0 0 196 29" fill="none" xmlns="http://www.w3.org/2000/svg">
<path d="M2.68 6C2.68 3.44 1.86667 1.89333 0.24 1.36H11.96C14.8133 1.36 17.0933 2.10667 18.8 3.6C20.5333 5.09333 21.4 6.94667 21.4 9.16C21.4 11.0267 20.8133 12.6533 19.64 14.04C18.4933 15.4267 16.9067 16.2533 14.88 16.52C15.5733 16.9467 16.24 17.72 16.88 18.84L20.44 25C20.9467 25.9067 21.52 26.6267 22.16 27.16C22.8267 27.6933 23.4133 27.9733 23.92 28H15.8L11.36 19.8C10.88 18.8933 10.4533 18.2933 10.08 18C9.70667 17.68 9.25333 17.52 8.72 17.52H8.16V23.56C8.16 24.5733 8.26667 25.4 8.48 26.04C8.69333 26.68 8.94667 27.16 9.24 27.48C9.56 27.7733 9.88 27.9467 10.2 28H0.56C0.906667 27.9467 1.24 27.7733 1.56 27.48C1.90667 27.16 2.17333 26.68 2.36 26.04C2.57333 25.3733 2.68 24.5467 2.68 23.56V6ZM10.92 13.92C12.4133 13.92 13.5733 13.5067 14.4 12.68C15.2533 11.8533 15.68 10.7333 15.68 9.32C15.68 8.06667 15.24 7.04 14.36 6.24C13.5067 5.41333 12.3467 5 10.88 5H8.12V13.92H10.92ZM38.9878 9.12C38.9878 7.70667 38.5745 6.6 37.7478 5.8C36.9211 4.97333 35.8811 4.56 34.6278 4.56C33.4278 4.56 32.4945 4.86667 31.8278 5.48C31.1878 6.09333 30.8678 6.77333 30.8678 7.52C30.8678 8.13333 31.0678 8.68 31.4678 9.16C31.8678 9.64 32.4545 9.96 33.2278 10.12L29.6678 14C28.6278 13.7067 27.7345 13.0933 26.9878 12.16C26.2678 11.2 25.9078 10.0533 25.9078 8.72C25.9078 6.42667 26.8145 4.53333 28.6278 3.04C30.4678 1.52 32.8945 0.759998 35.9078 0.759998C38.4678 0.759998 40.5611 1.46666 42.1878 2.88C43.8145 4.26667 44.6278 6.13333 44.6278 8.48C44.6278 9.62667 44.3211 10.84 43.7078 12.12C43.1211 13.3733 42.2278 14.7867 41.0278 16.36C39.8278 17.9333 37.6678 20.4267 34.5478 23.84H41.1478C43.4411 23.84 45.0011 23.16 45.8278 21.8L44.9078 28H25.3078L31.9078 20.72C34.8678 17.44 36.7878 15.0267 37.6678 13.48C38.5478 11.9333 38.9878 10.48 38.9878 9.12Z" fill="white"/>
<path d="M58.9709 5.84C58.9709 4.66667 58.7576 3.68 58.3309 2.88C57.9309 2.05333 57.3176 1.54667 56.4909 1.36H68.8509C72.9576 1.36 76.2776 2.54667 78.8109 4.92C81.3443 7.29333 82.6109 10.4533 82.6109 14.4C82.6109 18.5067 81.3309 21.8 78.7709 24.28C76.2376 26.76 72.7843 28 68.4109 28H56.7709C57.4643 27.8933 57.9976 27.4133 58.3709 26.56C58.7709 25.68 58.9709 24.5067 58.9709 23.04V5.84ZM68.6509 24.32C71.0509 24.32 72.9576 23.4267 74.3709 21.64C75.8109 19.8533 76.5309 17.5467 76.5309 14.72C76.5309 11.6 75.7309 9.2 74.1309 7.52C72.5576 5.84 70.3443 5 67.4909 5H64.7309V24.32H68.6509ZM87.9144 6C87.9144 3.44 87.101 1.89333 85.4744 1.36H97.1944C100.048 1.36 102.328 2.10667 104.034 3.6C105.768 5.09333 106.634 6.94667 106.634 9.16C106.634 11.0267 106.048 12.6533 104.874 14.04C103.728 15.4267 102.141 16.2533 100.114 16.52C100.808 16.9467 101.474 17.72 102.114 18.84L105.674 25C106.181 25.9067 106.754 26.6267 107.394 27.16C108.061 27.6933 108.648 27.9733 109.154 28H101.034L96.5944 19.8C96.1144 18.8933 95.6877 18.2933 95.3144 18C94.941 17.68 94.4877 17.52 93.9544 17.52H93.3944V23.56C93.3944 24.5733 93.501 25.4 93.7144 26.04C93.9277 26.68 94.181 27.16 94.4744 27.48C94.7944 27.7733 95.1144 27.9467 95.4344 28H85.7944C86.141 27.9467 86.4744 27.7733 86.7944 27.48C87.141 27.16 87.4077 26.68 87.5944 26.04C87.8077 25.3733 87.9144 24.5467 87.9144 23.56V6ZM96.1544 13.92C97.6477 13.92 98.8077 13.5067 99.6344 12.68C100.488 11.8533 100.914 10.7333 100.914 9.32C100.914 8.06667 100.474 7.04 99.5944 6.24C98.741 5.41333 97.581 5 96.1144 5H93.3544V13.92H96.1544ZM113.342 5.84C113.342 4.66667 113.129 3.68 112.702 2.88C112.276 2.05333 111.662 1.54667 110.862 1.36H128.982V8.48C128.609 7.2 128.022 6.30667 127.222 5.8C126.422 5.26667 125.382 5 124.102 5H119.062V12.72H123.462C125.142 12.7467 126.209 12.2933 126.662 11.36V17.68C126.609 17.3333 126.316 17.0267 125.782 16.76C125.276 16.4933 124.529 16.36 123.542 16.36H119.062V24.32H124.502C126.182 24.32 127.449 24.0533 128.302 23.52C129.182 22.96 129.996 21.9733 130.742 20.56L129.462 28H111.182C111.529 27.9467 111.862 27.76 112.182 27.44C112.502 27.0933 112.769 26.5867 112.982 25.92C113.222 25.2533 113.342 24.36 113.342 23.24V5.84ZM144.016 1.36H148.736L157.536 23C158.656 25.88 159.923 27.5467 161.336 28H150.576C151.003 27.9467 151.35 27.76 151.616 27.44C151.91 27.12 152.056 26.68 152.056 26.12C152.056 25.72 151.576 24.24 150.616 21.68H140.416C139.59 23.9467 139.176 25.36 139.176 25.92C139.176 26.56 139.336 27.0533 139.656 27.4C140.003 27.7467 140.39 27.9467 140.816 28H131.856C132.39 27.92 132.99 27.44 133.656 26.56C134.35 25.68 135.003 24.4533 135.616 22.88L144.016 1.36ZM149.256 18.2L145.456 8.36L141.736 18.2H149.256ZM165.339 5.64C165.339 3.21333 164.486 1.78667 162.779 1.36H172.499L179.579 17.48L186.579 1.36H195.339C194.726 1.46666 194.206 1.90666 193.779 2.68C193.379 3.45333 193.179 4.48 193.179 5.76V23.48C193.179 24.4933 193.286 25.32 193.499 25.96C193.712 26.6 193.992 27.0933 194.339 27.44C194.686 27.7867 195.019 27.9733 195.339 28H185.819C186.352 27.92 186.806 27.5067 187.179 26.76C187.552 25.9867 187.739 24.8933 187.739 23.48V8.28L178.739 28.64L169.499 8.32V23.24C169.499 24.3067 169.632 25.2 169.899 25.92C170.166 26.6133 170.486 27.12 170.859 27.44C171.232 27.76 171.619 27.9467 172.019 28H162.899C163.299 27.9467 163.672 27.76 164.019 27.44C164.392 27.12 164.699 26.6133 164.939 25.92C165.206 25.2 165.339 24.3067 165.339 23.24V5.64Z" fill="#FEC000"/>
</svg>
